<mxfile host="app.diagrams.net" modified="2022-11-03T13:43:47.742Z" agent="5.0 (Windows NT 10.0; Win64; x64) AppleWebKit/537.36 (KHTML, like Gecko) Chrome/106.0.0.0 Safari/537.36" etag="VvHc7wmtXIfm-enJvFe2" version="20.5.1" type="github">
  <diagram id="WNYNXLuQhr5H1WM_juKS" name="Страница 1">
    <mxGraphModel dx="673" dy="806" grid="1" gridSize="10" guides="1" tooltips="1" connect="1" arrows="1" fold="1" page="1" pageScale="1" pageWidth="827" pageHeight="1169" math="0" shadow="0">
      <root>
        <mxCell id="0" />
        <mxCell id="1" parent="0" />
        <mxCell id="FiCnPz2NSFqeGe_ML8CB-3" style="rounded=0;orthogonalLoop=1;jettySize=auto;html=1;exitX=0.5;exitY=0;exitDx=0;exitDy=0;" edge="1" parent="1" source="FiCnPz2NSFqeGe_ML8CB-1" target="FiCnPz2NSFqeGe_ML8CB-2">
          <mxGeometry relative="1" as="geometry" />
        </mxCell>
        <mxCell id="FiCnPz2NSFqeGe_ML8CB-1" value="&amp;lt;&amp;lt; component &amp;gt;&amp;gt;&lt;br&gt;&lt;br&gt;&lt;div style=&quot;color: rgb(252, 252, 250); background-color: rgb(45, 42, 46); font-family: Consolas, &amp;quot;Courier New&amp;quot;, monospace; font-size: 14px; line-height: 19px;&quot;&gt;&lt;span style=&quot;color: #78dce8;&quot;&gt;AppBCPApplicationsRegistryComponent&lt;/span&gt;&lt;/div&gt;&lt;br&gt;bcp-applications-registry.components.ts" style="rounded=0;whiteSpace=wrap;html=1;" vertex="1" parent="1">
          <mxGeometry x="80" y="380" width="300" height="90" as="geometry" />
        </mxCell>
        <mxCell id="FiCnPz2NSFqeGe_ML8CB-2" value="&amp;lt;&amp;lt; template &amp;gt;&amp;gt;&lt;br&gt;&lt;br&gt;&lt;div style=&quot;background-color: rgb(45, 42, 46); font-family: Consolas, &amp;quot;Courier New&amp;quot;, monospace; font-size: 14px; line-height: 19px;&quot;&gt;&lt;font color=&quot;#78dce8&quot;&gt;registry.component.html&lt;/font&gt;&lt;/div&gt;&lt;br&gt;" style="rounded=0;whiteSpace=wrap;html=1;" vertex="1" parent="1">
          <mxGeometry x="80" y="200" width="300" height="90" as="geometry" />
        </mxCell>
      </root>
    </mxGraphModel>
  </diagram>
</mxfile>
